<?xml version="1.0" encoding="UTF-8"?><svg id="a" xmlns="http://www.w3.org/2000/svg" xmlns:xlink="http://www.w3.org/1999/xlink" viewBox="0 0 504 336.15"><defs><style>.c{fill:url(#b);}.d{fill:#fff;}</style><linearGradient id="b" x1="252" y1="208.22" x2="252" y2="-1.28" gradientTransform="matrix(1, 0, 0, 1, 0, 0)" gradientUnits="userSpaceOnUse"><stop offset="0" stop-color="#1c4062"/><stop offset=".24" stop-color="#125e7e"/><stop offset=".56" stop-color="#08819e"/><stop offset=".83" stop-color="#0297b1"/><stop offset="1" stop-color="#009fb9"/></linearGradient></defs><g><rect class="c" x="148.26" y="-.43" width="207.48" height="207.48" rx="6.01" ry="6.01"/><g><rect class="d" x="180.66" y="83.52" width="11.41" height="11.41"/><rect class="d" x="194.96" y="83.52" width="11.41" height="11.41"/><rect class="d" x="209.71" y="83.52" width="11.41" height="11.41"/><rect class="d" x="180.66" y="97.6" width="11.41" height="11.41"/><rect class="d" x="194.96" y="97.6" width="11.41" height="11.41"/><rect class="d" x="209.71" y="97.6" width="11.41" height="11.41"/><rect class="d" x="180.66" y="111.69" width="11.41" height="11.41"/><rect class="d" x="194.96" y="111.69" width="11.41" height="11.41"/><rect class="d" x="209.71" y="111.69" width="11.41" height="11.41"/></g><path class="d" d="M280.58,150.13c-25.82,0-46.82-21-46.82-46.82s21-46.82,46.82-46.82,46.82,21,46.82,46.82-21,46.82-46.82,46.82Zm0-90.29c-23.97,0-43.47,19.5-43.47,43.47s19.5,43.47,43.47,43.47,43.47-19.5,43.47-43.47-19.5-43.47-43.47-43.47Z"/><path class="d" d="M294.29,107.55c-.28,.94-.66,1.84-1.11,2.69l9.1,9.1-6,6-9.1-9.1c-.85,.46-1.75,.83-2.69,1.11v12.87h-8.49v-12.87c-.94-.28-1.84-.66-2.69-1.11l-9.1,9.1-6-6,9.1-9.1c-.46-.85-.83-1.75-1.11-2.69h-12.87v-8.49h12.87c.28-.94,.66-1.84,1.11-2.69l-9.1-9.1,6-6,9.1,9.1c.85-.46,1.75-.83,2.69-1.11v-12.87h8.49v12.87c.94,.28,1.84,.66,2.69,1.11l9.1-9.1,6,6-9.1,9.1c.46,.85,.83,1.75,1.11,2.69h12.87v8.49h-12.87Zm-14.21-13.4c-4.83,0-8.75,3.92-8.75,8.75s3.92,8.75,8.75,8.75,8.75-3.92,8.75-8.75-3.92-8.75-8.75-8.75Z"/><path class="d" d="M339.67,9.94H164.32c-3.14,0-5.7,2.55-5.7,5.7v30.74h-1.63v113.87h1.63v30.74c0,3.14,2.55,5.69,5.7,5.69h175.35c3.14,0,5.69-2.55,5.69-5.69V15.64c0-3.14-2.55-5.7-5.69-5.7Zm2.73,181.04c0,1.51-1.22,2.73-2.73,2.73H164.32c-1.51,0-2.73-1.22-2.73-2.73v-30.74h1.62V46.37h-1.62V15.64c0-1.51,1.22-2.73,2.73-2.73h175.35c1.51,0,2.73,1.22,2.73,2.73V190.98Z"/></g><g><path class="d" d="M86.49,257.28v78.43h-14.32v-48.16c0-1.01,.03-2.09,.08-3.24,.05-1.15,.15-2.32,.3-3.51l-22.43,42.54c-1.22,2.34-3.12,3.51-5.68,3.51h-2.27c-1.26,0-2.38-.3-3.35-.89s-1.75-1.47-2.32-2.62l-22.54-42.7c.11,1.26,.2,2.48,.27,3.65,.07,1.17,.11,2.26,.11,3.27v48.16H0v-78.43H12.33c.68,0,1.3,.02,1.84,.05s1.02,.14,1.43,.3c.41,.16,.79,.41,1.14,.76,.34,.34,.67,.82,1,1.43l21.95,41.84c.68,1.26,1.33,2.56,1.92,3.89,.59,1.33,1.16,2.7,1.7,4.11,.54-1.44,1.11-2.85,1.7-4.22,.59-1.37,1.23-2.68,1.92-3.95l21.78-41.67c.32-.61,.67-1.09,1.03-1.43,.36-.34,.75-.6,1.16-.76,.41-.16,.88-.26,1.41-.3s1.14-.05,1.86-.05h12.32Z"/><path class="d" d="M119.19,335.71h-16.33v-78.43h16.33v78.43Z"/><path class="d" d="M202.81,257.28v78.43h-8.38c-1.26,0-2.32-.21-3.19-.62-.86-.41-1.71-1.13-2.54-2.14l-39.08-49.73c.11,1.26,.19,2.5,.24,3.73,.05,1.23,.08,2.36,.08,3.41v45.35h-14.32v-78.43h8.54c.68,0,1.27,.03,1.76,.08s.93,.18,1.33,.38c.4,.2,.77,.46,1.14,.78,.36,.32,.76,.76,1.19,1.3l39.35,49.94c-.14-1.37-.25-2.69-.32-3.97-.07-1.28-.11-2.49-.11-3.65v-44.86h14.32Z"/><path class="d" d="M287.89,335.71h-12.59c-1.4,0-2.55-.33-3.43-1-.88-.67-1.54-1.52-1.97-2.57l-5.3-14.97h-31.24l-5.3,14.97c-.36,.9-.99,1.72-1.89,2.46-.9,.74-2.04,1.11-3.41,1.11h-12.7l30.65-78.43h16.59l30.59,78.43Zm-27.24-29.78l-8.49-24c-.5-1.26-1.04-2.74-1.59-4.43-.56-1.69-1.09-3.53-1.59-5.51-.51,2.02-1.04,3.88-1.6,5.6s-1.09,3.2-1.59,4.46l-8.43,23.89h23.3Z"/><path class="d" d="M357.68,335.71h-14.65c-2.74,0-4.72-1.04-5.95-3.13l-14.92-24.06c-.61-.94-1.29-1.62-2.03-2.05-.74-.43-1.83-.65-3.27-.65h-5.51v29.89h-16.22v-78.43h24.65c5.48,0,10.16,.57,14.05,1.7,3.89,1.14,7.08,2.71,9.57,4.73,2.49,2.02,4.31,4.43,5.46,7.22,1.15,2.79,1.73,5.86,1.73,9.22,0,2.6-.37,5.05-1.11,7.38-.74,2.33-1.81,4.44-3.22,6.35-1.4,1.91-3.14,3.6-5.19,5.08-2.05,1.48-4.4,2.67-7.03,3.57,1.05,.58,2.02,1.27,2.92,2.08,.9,.81,1.71,1.78,2.43,2.89l18.27,28.22Zm-38-41.3c2.63,0,4.9-.33,6.81-1,1.91-.67,3.48-1.59,4.7-2.76,1.22-1.17,2.13-2.55,2.7-4.13,.58-1.59,.86-3.32,.86-5.19,0-3.71-1.23-6.59-3.7-8.65-2.47-2.05-6.23-3.08-11.27-3.08h-8.43v24.81h8.32Z"/><path class="d" d="M417.51,316.42c.9,0,1.66,.32,2.27,.97l6.43,6.87c-3.17,4.04-7.11,7.1-11.81,9.19-4.7,2.09-10.3,3.14-16.78,3.14-5.87,0-11.15-1-15.84-3-4.68-2-8.67-4.78-11.95-8.35-3.28-3.57-5.8-7.8-7.57-12.7-1.77-4.9-2.65-10.25-2.65-16.05,0-3.89,.42-7.59,1.27-11.11,.85-3.51,2.08-6.75,3.7-9.7s3.58-5.62,5.86-8c2.29-2.38,4.87-4.41,7.76-6.08,2.88-1.67,6.03-2.95,9.43-3.84,3.41-.88,7.04-1.33,10.89-1.33,2.88,0,5.61,.25,8.19,.76,2.58,.51,4.98,1.21,7.22,2.11,2.23,.9,4.3,1.99,6.19,3.27s3.59,2.67,5.11,4.19l-5.46,7.46c-.32,.47-.74,.88-1.24,1.24s-1.19,.54-2.05,.54-1.74-.31-2.62-.92c-.88-.61-1.96-1.3-3.24-2.05s-2.88-1.44-4.81-2.05c-1.93-.61-4.37-.92-7.32-.92-3.28,0-6.29,.6-9.03,1.78-2.74,1.19-5.09,2.91-7.05,5.16-1.96,2.25-3.49,5.02-4.57,8.3-1.08,3.28-1.62,7.01-1.62,11.19s.58,7.97,1.76,11.27c1.17,3.3,2.77,6.08,4.81,8.35s4.41,3.99,7.14,5.16c2.72,1.17,5.63,1.76,8.73,1.76,1.84,0,3.5-.09,5-.27,1.49-.18,2.88-.49,4.16-.92,1.28-.43,2.49-.99,3.62-1.68,1.14-.68,2.28-1.55,3.43-2.59,.4-.32,.81-.59,1.24-.81,.43-.22,.9-.32,1.4-.32Z"/><path class="d" d="M504,335.71h-12.59c-1.4,0-2.55-.33-3.43-1-.88-.67-1.54-1.52-1.97-2.57l-5.3-14.97h-31.24l-5.3,14.97c-.36,.9-.99,1.72-1.89,2.46-.9,.74-2.04,1.11-3.41,1.11h-12.7l30.65-78.43h16.59l30.59,78.43Zm-27.24-29.78l-8.49-24c-.5-1.26-1.04-2.74-1.59-4.43-.56-1.69-1.09-3.53-1.59-5.51-.51,2.02-1.04,3.88-1.6,5.6s-1.09,3.2-1.59,4.46l-8.43,23.89h23.3Z"/></g></svg>