<?xml version="1.0" encoding="UTF-8"?><svg id="a" xmlns="http://www.w3.org/2000/svg" xmlns:xlink="http://www.w3.org/1999/xlink" viewBox="0 0 504 122.44"><defs><style>.c{fill:url(#b);}.d{fill:#fff;}</style><linearGradient id="b" x1="60.72" y1="122.62" x2="60.72" y2="0" gradientTransform="matrix(1, 0, 0, 1, 0, 0)" gradientUnits="userSpaceOnUse"><stop offset="0" stop-color="#1c4062"/><stop offset=".24" stop-color="#125e7e"/><stop offset=".56" stop-color="#08819e"/><stop offset=".83" stop-color="#0297b1"/><stop offset="1" stop-color="#009fb9"/></linearGradient></defs><g><rect class="c" y=".5" width="121.44" height="121.44" rx="3.52" ry="3.52"/><g><rect class="d" x="18.97" y="49.63" width="6.68" height="6.68"/><rect class="d" x="27.34" y="49.63" width="6.68" height="6.68"/><rect class="d" x="35.97" y="49.63" width="6.68" height="6.68"/><rect class="d" x="18.97" y="57.88" width="6.68" height="6.68"/><rect class="d" x="27.34" y="57.88" width="6.68" height="6.68"/><rect class="d" x="35.97" y="57.88" width="6.68" height="6.68"/><rect class="d" x="18.97" y="66.12" width="6.68" height="6.68"/><rect class="d" x="27.34" y="66.12" width="6.68" height="6.68"/><rect class="d" x="35.97" y="66.12" width="6.68" height="6.68"/></g><path class="d" d="M77.45,88.62c-15.11,0-27.4-12.29-27.4-27.4s12.29-27.4,27.4-27.4,27.4,12.29,27.4,27.4-12.29,27.4-27.4,27.4Zm0-52.85c-14.03,0-25.44,11.41-25.44,25.44s11.41,25.44,25.44,25.44,25.44-11.41,25.44-25.44-11.41-25.44-25.44-25.44Z"/><path class="d" d="M85.47,63.7c-.17,.55-.38,1.08-.65,1.58l5.32,5.32-3.51,3.51-5.32-5.32c-.5,.27-1.03,.49-1.58,.65v7.53h-4.97v-7.53c-.55-.17-1.08-.38-1.58-.65l-5.32,5.32-3.51-3.51,5.32-5.32c-.27-.5-.49-1.03-.65-1.58h-7.53v-4.97h7.53c.17-.55,.38-1.08,.65-1.58l-5.32-5.32,3.51-3.51,5.33,5.33c.5-.27,1.03-.49,1.58-.65v-7.53h4.97v7.53c.55,.17,1.08,.38,1.58,.65l5.33-5.33,3.51,3.51-5.32,5.32c.27,.5,.49,1.03,.65,1.58h7.53v4.97h-7.53Zm-8.32-7.84c-2.83,0-5.12,2.29-5.12,5.12s2.29,5.12,5.12,5.12,5.12-2.29,5.12-5.12-2.29-5.12-5.12-5.12Z"/><path class="d" d="M112.03,115.87H9.4c-1.84,0-3.33-1.5-3.33-3.33V9.9c0-1.84,1.5-3.33,3.33-3.33H112.03c1.84,0,3.33,1.5,3.33,3.33V112.53c0,1.84-1.5,3.33-3.33,3.33ZM9.4,8.31c-.88,0-1.6,.72-1.6,1.6V112.53c0,.88,.72,1.6,1.6,1.6H112.03c.88,0,1.6-.72,1.6-1.6V9.9c0-.88-.72-1.6-1.6-1.6H9.4Z"/><rect class="d" x="5.12" y="27.89" width="3.64" height="66.65"/></g><g><path class="d" d="M214.83,34.06v54.32h-9.92V55.02c0-.7,.02-1.45,.06-2.25,.04-.8,.11-1.61,.21-2.43l-15.54,29.46c-.85,1.62-2.16,2.43-3.93,2.43h-1.57c-.87,0-1.65-.21-2.32-.62s-1.21-1.02-1.61-1.82l-15.61-29.58c.07,.87,.14,1.72,.19,2.53,.05,.81,.07,1.57,.07,2.26v33.36h-9.92V34.06h8.54c.47,0,.9,.01,1.27,.04s.7,.09,.99,.21c.29,.11,.55,.29,.79,.52,.24,.24,.47,.57,.69,.99l15.2,28.98c.47,.87,.92,1.77,1.33,2.7,.41,.92,.81,1.87,1.18,2.85,.37-1,.77-1.97,1.18-2.92,.41-.95,.85-1.86,1.33-2.73l15.09-28.86c.22-.42,.46-.76,.71-.99,.25-.24,.52-.41,.81-.52,.29-.11,.61-.18,.97-.21s.79-.04,1.29-.04h8.54Z"/><path class="d" d="M237.48,88.38h-11.31V34.06h11.31v54.32Z"/><path class="d" d="M295.4,34.06v54.32h-5.8c-.87,0-1.61-.14-2.21-.43-.6-.29-1.19-.78-1.76-1.48l-27.07-34.44c.07,.87,.13,1.73,.17,2.58,.04,.85,.06,1.63,.06,2.36v31.41h-9.92V34.06h5.91c.47,0,.88,.02,1.22,.06s.64,.13,.92,.26c.27,.14,.54,.32,.79,.54,.25,.22,.52,.52,.82,.9l27.25,34.59c-.1-.95-.17-1.87-.22-2.75-.05-.89-.08-1.73-.08-2.53v-31.07h9.92Z"/><path class="d" d="M354.33,88.38h-8.72c-.97,0-1.77-.23-2.38-.69-.61-.46-1.07-1.05-1.37-1.78l-3.67-10.37h-21.64l-3.67,10.37c-.25,.62-.69,1.19-1.31,1.7-.62,.51-1.41,.77-2.36,.77h-8.8l21.23-54.32h11.49l21.19,54.32Zm-18.87-20.63l-5.88-16.62c-.35-.87-.72-1.9-1.1-3.07-.39-1.17-.76-2.45-1.1-3.82-.35,1.4-.72,2.69-1.11,3.88s-.76,2.21-1.1,3.09l-5.84,16.55h16.14Z"/><path class="d" d="M402.66,88.38h-10.15c-1.9,0-3.27-.72-4.12-2.17l-10.33-16.66c-.42-.65-.89-1.12-1.4-1.42-.51-.3-1.27-.45-2.26-.45h-3.82v20.7h-11.23V34.06h17.07c3.79,0,7.04,.39,9.73,1.18,2.7,.79,4.9,1.88,6.63,3.28,1.72,1.4,2.98,3.07,3.78,5,.8,1.94,1.2,4.06,1.2,6.38,0,1.8-.26,3.5-.77,5.11-.51,1.61-1.25,3.08-2.23,4.4-.97,1.32-2.17,2.5-3.59,3.52-1.42,1.02-3.05,1.85-4.87,2.47,.72,.4,1.4,.88,2.02,1.44,.62,.56,1.19,1.23,1.69,2l12.65,19.54Zm-26.32-28.6c1.82,0,3.39-.23,4.72-.69,1.32-.46,2.41-1.1,3.26-1.91,.85-.81,1.47-1.77,1.87-2.86,.4-1.1,.6-2.3,.6-3.6,0-2.57-.85-4.57-2.56-5.99-1.71-1.42-4.31-2.13-7.81-2.13h-5.84v17.18h5.77Z"/><path class="d" d="M444.1,75.01c.62,0,1.15,.22,1.57,.67l4.46,4.76c-2.2,2.8-4.92,4.92-8.18,6.36-3.26,1.45-7.13,2.17-11.62,2.17-4.07,0-7.72-.69-10.97-2.08-3.24-1.39-6-3.31-8.27-5.78s-4.02-5.4-5.24-8.8c-1.22-3.39-1.83-7.1-1.83-11.12,0-2.7,.29-5.26,.88-7.69,.59-2.43,1.44-4.67,2.56-6.72s2.48-3.89,4.06-5.54,3.38-3.05,5.37-4.21c2-1.16,4.17-2.05,6.53-2.66,2.36-.61,4.87-.92,7.54-.92,2,0,3.89,.18,5.67,.52,1.78,.35,3.45,.84,5,1.46,1.55,.62,2.98,1.38,4.29,2.26,1.31,.89,2.49,1.85,3.54,2.9l-3.78,5.17c-.22,.32-.51,.61-.86,.86s-.82,.37-1.42,.37-1.2-.21-1.82-.64c-.61-.42-1.36-.9-2.25-1.42-.89-.52-2-1-3.33-1.42-1.34-.42-3.03-.64-5.07-.64-2.27,0-4.36,.41-6.25,1.24s-3.53,2.02-4.89,3.58c-1.36,1.56-2.41,3.48-3.16,5.75-.75,2.27-1.12,4.85-1.12,7.75s.4,5.52,1.22,7.81c.81,2.28,1.92,4.21,3.33,5.78,1.41,1.57,3.06,2.76,4.94,3.58,1.88,.81,3.9,1.22,6.05,1.22,1.27,0,2.43-.06,3.46-.19,1.04-.13,2-.34,2.88-.64s1.72-.69,2.51-1.16,1.58-1.07,2.38-1.8c.28-.22,.56-.41,.86-.56,.3-.15,.62-.22,.97-.22Z"/><path class="d" d="M504,88.38h-8.72c-.97,0-1.77-.23-2.38-.69-.61-.46-1.07-1.05-1.37-1.78l-3.67-10.37h-21.64l-3.67,10.37c-.25,.62-.69,1.19-1.31,1.7-.62,.51-1.41,.77-2.36,.77h-8.8l21.23-54.32h11.49l21.19,54.32Zm-18.87-20.63l-5.88-16.62c-.35-.87-.72-1.9-1.1-3.07-.39-1.17-.76-2.45-1.1-3.82-.35,1.4-.72,2.69-1.11,3.88s-.76,2.21-1.1,3.09l-5.84,16.55h16.14Z"/></g></svg>