<?xml version="1.0" encoding="UTF-8" standalone="no"?>
<svg
   version="1.1"
   id="svg2"
   xml:space="preserve"
   width="1120"
   height="256"
   viewBox="0 0 1120 256"
   sodipodi:docname="logo.svg"
   inkscape:version="1.1.2 (0a00cf5339, 2022-02-04)"
   xmlns:inkscape="http://www.inkscape.org/namespaces/inkscape"
   xmlns:sodipodi="http://sodipodi.sourceforge.net/DTD/sodipodi-0.dtd"
   xmlns="http://www.w3.org/2000/svg"
   xmlns:svg="http://www.w3.org/2000/svg"
   xmlns:rdf="http://www.w3.org/1999/02/22-rdf-syntax-ns#"
   xmlns:cc="http://creativecommons.org/ns#"
   xmlns:dc="http://purl.org/dc/elements/1.1/"><sodipodi:namedview
     id="namedview94"
     pagecolor="#ffffff"
     bordercolor="#666666"
     borderopacity="1.0"
     inkscape:pageshadow="2"
     inkscape:pageopacity="0.0"
     inkscape:pagecheckerboard="0"
     showgrid="false"
     inkscape:zoom="1.2116071"
     inkscape:cx="560"
     inkscape:cy="128.34193"
     inkscape:window-width="2488"
     inkscape:window-height="1371"
     inkscape:window-x="2632"
     inkscape:window-y="32"
     inkscape:window-maximized="1"
     inkscape:current-layer="svg2" /><metadata
     id="metadata8"><rdf:RDF><cc:Work
         rdf:about=""><dc:format>image/svg+xml</dc:format><dc:type
           rdf:resource="http://purl.org/dc/dcmitype/StillImage" /></cc:Work></rdf:RDF></metadata><defs
     id="defs6"><clipPath
       clipPathUnits="userSpaceOnUse"
       id="clipPath18"><path
         d="M 322.659,304.364 H 159.27 v 18.343 h 163.389 z"
         id="path16" /></clipPath><linearGradient
       x1="0"
       y1="0"
       x2="1"
       y2="0"
       gradientUnits="userSpaceOnUse"
       gradientTransform="matrix(-1.9834863,-216.20001,-216.20001,1.9834863,241.03333,321.01636)"
       spreadMethod="pad"
       id="linearGradient28"><stop
         style="stop-opacity:1;stop-color:#009cb6"
         offset="0"
         id="stop24" /><stop
         style="stop-opacity:1;stop-color:#173b5e"
         offset="1"
         id="stop26" /></linearGradient><clipPath
       clipPathUnits="userSpaceOnUse"
       id="clipPath38"><path
         d="M 322.659,270.699 H 159.27 v 18.342 h 163.389 z"
         id="path36" /></clipPath><linearGradient
       x1="0"
       y1="0"
       x2="1"
       y2="0"
       gradientUnits="userSpaceOnUse"
       gradientTransform="matrix(-1.9834863,-216.20001,-216.20001,1.9834863,241.34215,321.01352)"
       spreadMethod="pad"
       id="linearGradient48"><stop
         style="stop-opacity:1;stop-color:#009cb6"
         offset="0"
         id="stop44" /><stop
         style="stop-opacity:1;stop-color:#173b5e"
         offset="1"
         id="stop46" /></linearGradient><clipPath
       clipPathUnits="userSpaceOnUse"
       id="clipPath58"><path
         d="M 322.659,237.034 H 159.27 v 18.343 h 163.389 z"
         id="path56" /></clipPath><linearGradient
       x1="0"
       y1="0"
       x2="1"
       y2="0"
       gradientUnits="userSpaceOnUse"
       gradientTransform="matrix(-1.9834863,-216.20001,-216.20001,1.9834863,241.65099,321.01068)"
       spreadMethod="pad"
       id="linearGradient68"><stop
         style="stop-opacity:1;stop-color:#009cb6"
         offset="0"
         id="stop64" /><stop
         style="stop-opacity:1;stop-color:#173b5e"
         offset="1"
         id="stop66" /></linearGradient><clipPath
       clipPathUnits="userSpaceOnUse"
       id="clipPath78"><path
         d="M 322.659,203.368 H 159.27 v 18.343 h 163.389 z"
         id="path76" /></clipPath><linearGradient
       x1="0"
       y1="0"
       x2="1"
       y2="0"
       gradientUnits="userSpaceOnUse"
       gradientTransform="matrix(-1.9834863,-216.20001,-216.20001,1.9834863,241.95981,321.00784)"
       spreadMethod="pad"
       id="linearGradient88"><stop
         style="stop-opacity:1;stop-color:#009cb6"
         offset="0"
         id="stop84" /><stop
         style="stop-opacity:1;stop-color:#173b5e"
         offset="1"
         id="stop86" /></linearGradient><clipPath
       clipPathUnits="userSpaceOnUse"
       id="clipPath98"><path
         d="M 322.659,169.703 H 159.27 v 18.343 h 163.389 z"
         id="path96" /></clipPath><linearGradient
       x1="0"
       y1="0"
       x2="1"
       y2="0"
       gradientUnits="userSpaceOnUse"
       gradientTransform="matrix(-1.9834863,-216.20001,-216.20001,1.9834863,242.26865,321.00504)"
       spreadMethod="pad"
       id="linearGradient108"><stop
         style="stop-opacity:1;stop-color:#009cb6"
         offset="0"
         id="stop104" /><stop
         style="stop-opacity:1;stop-color:#173b5e"
         offset="1"
         id="stop106" /></linearGradient><clipPath
       clipPathUnits="userSpaceOnUse"
       id="clipPath118"><path
         d="M 322.659,136.038 H 159.27 v 18.342 h 163.389 z"
         id="path116" /></clipPath><linearGradient
       x1="0"
       y1="0"
       x2="1"
       y2="0"
       gradientUnits="userSpaceOnUse"
       gradientTransform="matrix(-1.9834863,-216.20001,-216.20001,1.9834863,242.57747,321.0022)"
       spreadMethod="pad"
       id="linearGradient128"><stop
         style="stop-opacity:1;stop-color:#009cb6"
         offset="0"
         id="stop124" /><stop
         style="stop-opacity:1;stop-color:#173b5e"
         offset="1"
         id="stop126" /></linearGradient><clipPath
       clipPathUnits="userSpaceOnUse"
       id="clipPath138"><path
         d="M 362.877,99.316 H 119.053 v 129.778 h 7.382 V 106.699 h 229.059 v 122.395 h 7.383 z"
         id="path136" /></clipPath><linearGradient
       x1="0"
       y1="0"
       x2="1"
       y2="0"
       gradientUnits="userSpaceOnUse"
       gradientTransform="matrix(-1.9834863,-216.20001,-216.20001,1.9834863,242.40337,321.00378)"
       spreadMethod="pad"
       id="linearGradient148"><stop
         style="stop-opacity:1;stop-color:#009cb6"
         offset="0"
         id="stop144" /><stop
         style="stop-opacity:1;stop-color:#173b5e"
         offset="1"
         id="stop146" /></linearGradient><clipPath
       clipPathUnits="userSpaceOnUse"
       id="clipPath158"><path
         d="M 0,341.481 H 481.93 V 0 H 0 Z"
         id="path156" /></clipPath><style
       id="style903">.c{fill:url(#b);}.d{fill:#fff;}.e{fill:#1c4062;}</style><linearGradient
       id="b"
       x1="60.720001"
       y1="122.62"
       x2="60.720001"
       y2="0"
       gradientUnits="userSpaceOnUse"><stop
         offset="0"
         stop-color="#1c4062"
         id="stop905" /><stop
         offset=".24"
         stop-color="#125e7e"
         id="stop907" /><stop
         offset=".56"
         stop-color="#08819e"
         id="stop909" /><stop
         offset=".83"
         stop-color="#0297b1"
         id="stop911" /><stop
         offset="1"
         stop-color="#009fb9"
         id="stop913" /></linearGradient></defs><g
     id="g1283"
     transform="matrix(1.3333333,0,0,-1.3333333,-5.278666e-7,377.69464)"><g
       transform="matrix(0.78745326,0,0,0.78745326,-93.748279,21.109292)"
       id="g12"><g
         clip-path="url(#clipPath18)"
         id="g14"><g
           id="g20"><g
             id="g22"><path
               id="path30"
               style="fill:url(#linearGradient28);stroke:none"
               d="M 322.659,304.364 H 159.27 v 18.343 h 163.389 z" /></g></g></g></g><g
       transform="matrix(0.78745326,0,0,0.78745326,-93.748279,21.109292)"
       id="g32"><g
         clip-path="url(#clipPath38)"
         id="g34"><g
           id="g40"><g
             id="g42"><path
               id="path50"
               style="fill:url(#linearGradient48);stroke:none"
               d="M 322.659,270.699 H 159.27 v 18.342 h 163.389 z" /></g></g></g></g><g
       transform="matrix(0.78745326,0,0,0.78745326,-93.748279,21.109292)"
       id="g52"><g
         clip-path="url(#clipPath58)"
         id="g54"><g
           id="g60"><g
             id="g62"><path
               id="path70"
               style="fill:url(#linearGradient68);stroke:none"
               d="M 322.659,237.034 H 159.27 v 18.343 h 163.389 z" /></g></g></g></g><g
       transform="matrix(0.78745326,0,0,0.78745326,-93.748279,21.109292)"
       id="g72"><g
         clip-path="url(#clipPath78)"
         id="g74"><g
           id="g80"><g
             id="g82"><path
               id="path90"
               style="fill:url(#linearGradient88);stroke:none"
               d="M 322.659,203.368 H 159.27 v 18.343 h 163.389 z" /></g></g></g></g><g
       transform="matrix(0.78745326,0,0,0.78745326,-93.748279,21.109292)"
       id="g92"><g
         clip-path="url(#clipPath98)"
         id="g94"><g
           id="g100"><g
             id="g102"><path
               id="path110"
               style="fill:url(#linearGradient108);stroke:none"
               d="M 322.659,169.703 H 159.27 v 18.343 h 163.389 z" /></g></g></g></g><g
       transform="matrix(0.78745326,0,0,0.78745326,-93.748279,21.109292)"
       id="g112"><g
         clip-path="url(#clipPath118)"
         id="g114"><g
           id="g120"><g
             id="g122"><path
               id="path130"
               style="fill:url(#linearGradient128);stroke:none"
               d="M 322.659,136.038 H 159.27 v 18.342 h 163.389 z" /></g></g></g></g><g
       transform="matrix(0.78745326,0,0,0.78745326,-93.748672,21.109292)"
       id="g132"><g
         clip-path="url(#clipPath138)"
         id="g134"><g
           id="g140"><g
             id="g142"><path
               id="path150"
               style="fill:url(#linearGradient148);stroke:none"
               d="M 362.877,99.316 H 119.053 v 129.778 h 7.382 V 106.699 h 229.059 v 122.395 h 7.383 z" /></g></g></g></g></g><path
     d="m 347.8099,140.482 v 44.635 h -21.251 V 70.882995 h 34.839 q 11.613,0 19.908,2.449 8.374,2.37 13.667,6.714999 5.372,4.345 7.9,10.428 2.528,6.004 2.528,13.271996 0,5.767 -1.738,10.902 -1.659,5.135 -4.898,9.32201 -3.16,4.187 -7.9,7.347 -4.661,3.16 -10.665,5.056 4.029,2.291 6.952,6.557 l 28.598,42.186 h -19.197 q -5.451,0 -7.9,-4.266 l -24.016,-36.577 q -1.343,-2.054 -3.002,-2.923 -1.58,-0.869 -4.74,-0.869 z m 0,-15.247 h 13.272 q 6.004,0 10.428,-1.501 4.503,-1.50101 7.347,-4.10801 2.923,-2.686 4.345,-6.32 1.422,-3.634 1.422,-7.979 0,-8.689996 -5.767,-13.350996 -5.688,-4.661 -17.459,-4.661 h -13.588 z"
     style="font-style:normal;font-variant:normal;font-weight:bold;font-stretch:normal;font-size:118.5px;line-height:1.25;font-family:Lato;-inkscape-font-specification:'Lato Bold';fill:#ffffff;fill-opacity:1;stroke:none;stroke-width:1"
     id="path1446" /><path
     d="m 529.58884,128 q 0,12.561 -4.187,23.068 -4.187,10.507 -11.771,18.091 -7.584,7.584 -18.249,11.771 -10.665,4.187 -23.7,4.187 h -43.529 V 70.882995 h 43.529 q 13.035,0 23.7,4.266 10.665,4.186999 18.249,11.770999 7.584,7.505 11.771,18.011996 4.187,10.507 4.187,23.06801 z m -21.804,0 q 0,-9.40101 -2.528,-16.82701 -2.449,-7.505 -7.189,-12.639996 -4.661,-5.214 -11.376,-7.979 -6.636,-2.765 -15.01,-2.765 h -22.199 V 168.211 h 22.199 q 8.374,0 15.01,-2.765 6.715,-2.765 11.376,-7.9 4.74,-5.214 7.189,-12.64 2.528,-7.505 2.528,-16.906 z"
     style="font-style:normal;font-variant:normal;font-weight:bold;font-stretch:normal;font-size:118.5px;line-height:1.25;font-family:Lato;-inkscape-font-specification:'Lato Bold';fill:#ffffff;fill-opacity:1;stroke:none;stroke-width:1"
     id="path1448" /><path
     d="m 569.64183,185.117 h -21.33 V 70.882995 h 21.33 z"
     style="font-style:normal;font-variant:normal;font-weight:bold;font-stretch:normal;font-size:118.5px;line-height:1.25;font-family:Lato;-inkscape-font-specification:'Lato Bold';fill:#ffffff;fill-opacity:1;stroke:none;stroke-width:1"
     id="path1450" /><path
     d="m 667.2067,70.882995 v 16.905999 h -50.718 v 33.811996 h 42.818 V 138.586 h -42.818 v 46.531 H 595.15871 V 70.882995 Z"
     style="font-style:normal;font-variant:normal;font-weight:bold;font-stretch:normal;font-size:118.5px;line-height:1.25;font-family:Lato;-inkscape-font-specification:'Lato Bold';fill:#ffffff;fill-opacity:1;stroke:none;stroke-width:1"
     id="path1452" /><path
     d="m 756.63471,70.882995 v 16.905999 h -50.71799 v 33.811996 h 42.81799 V 138.586 h -42.81799 v 46.531 h -21.33 V 70.882995 Z"
     style="font-style:normal;font-variant:normal;font-weight:bold;font-stretch:normal;font-size:118.5px;line-height:1.25;font-family:Lato;-inkscape-font-specification:'Lato Bold';fill:#ffffff;fill-opacity:1;stroke:none;stroke-width:1"
     id="path1454" /><path
     d="m 762.6387,70.882995 h 17.775 q 2.765,0 4.582,1.343 1.896,1.264 2.528,3.476 l 19.434,68.335005 q 0.632,2.528 1.185,5.53 0.632,2.923 1.264,6.241 0.632,-3.318 1.343,-6.241 0.79,-3.002 1.659,-5.53 l 22.436,-68.335005 q 0.632,-1.817 2.449,-3.318 1.896,-1.501 4.582,-1.501 h 6.241 q 2.765,0 4.503,1.343 1.738,1.343 2.607,3.476 l 22.357,68.335005 q 1.659,4.898 3.002,11.297 1.027,-6.241 2.291,-11.297 l 19.434,-68.335005 q 0.474,-1.975 2.37,-3.397 1.975,-1.422 4.661,-1.422 h 16.669 L 890.5397,185.117 h -19.197 l -24.964,-78.05201 q -0.553,-1.501 -1.027,-3.239 -0.474,-1.738 -0.948,-3.634 -0.395,1.896 -0.948,3.634 -0.474,1.738 -0.948,3.239 l -25.201,78.05201 h -19.276 z"
     style="font-style:normal;font-variant:normal;font-weight:bold;font-stretch:normal;font-size:118.5px;line-height:1.25;font-family:Lato;-inkscape-font-specification:'Lato Bold';fill:#ffffff;fill-opacity:1;stroke:none;stroke-width:1"
     id="path1456" /><path
     d="m 1012.1205,70.882995 v 16.905999 h -50.71803 v 31.678996 h 39.97403 V 135.821 h -39.97403 v 32.311 h 50.71803 v 16.985 H 940.07247 V 70.882995 Z"
     style="font-style:normal;font-variant:normal;font-weight:bold;font-stretch:normal;font-size:118.5px;line-height:1.25;font-family:Lato;-inkscape-font-specification:'Lato Bold';fill:#ffffff;fill-opacity:1;stroke:none;stroke-width:1"
     id="path1458" /><path
     d="M 1030.9223,185.117 V 70.882995 h 39.342 q 11.218,0 19.197,2.133 7.979,2.133 13.035,6.082999 5.135,3.95 7.505,9.559 2.37,5.609 2.37,12.639996 0,4.029 -1.185,7.742 -1.185,3.634 -3.713,6.873 -2.449,3.16 -6.32,5.767 -3.792,2.60701 -9.085,4.42401 23.542,5.293 23.542,25.438 0,7.268 -2.765,13.43 -2.765,6.162 -8.058,10.665 -5.293,4.424 -13.035,6.952 -7.742,2.528 -17.696,2.528 z m 21.251,-50.086 v 33.496 h 21.488 q 5.925,0 9.954,-1.422 4.029,-1.422 6.399,-3.792 2.449,-2.37 3.476,-5.53 1.106,-3.16 1.106,-6.715 0,-3.713 -1.185,-6.636 -1.185,-3.002 -3.713,-5.056 -2.528,-2.133 -6.557,-3.239 -3.95,-1.106 -9.559,-1.106 z m 0,-14.69401 h 16.906 q 10.902,0 16.432,-3.95 5.609,-3.95 5.609,-12.561 0,-8.926996 -5.056,-12.718996 -5.056,-3.792 -15.8,-3.792 h -18.091 z"
     style="font-style:normal;font-variant:normal;font-weight:bold;font-stretch:normal;font-size:118.5px;line-height:1.25;font-family:Lato;-inkscape-font-specification:'Lato Bold';fill:#ffffff;fill-opacity:1;stroke:none;stroke-width:1"
     id="path1460" /></svg>
