<?xml version="1.0" encoding="UTF-8" standalone="no"?>
<svg
   version="1.1"
   id="svg2"
   xml:space="preserve"
   width="553.69122"
   height="333.01999"
   viewBox="0 0 553.69122 333.01999"
   sodipodi:docname="logo-principale.svg"
   inkscape:version="1.1.2 (0a00cf5339, 2022-02-04)"
   inkscape:export-filename="logo-principale.png"
   inkscape:export-xdpi="96"
   inkscape:export-ydpi="96"
   xmlns:inkscape="http://www.inkscape.org/namespaces/inkscape"
   xmlns:sodipodi="http://sodipodi.sourceforge.net/DTD/sodipodi-0.dtd"
   xmlns="http://www.w3.org/2000/svg"
   xmlns:svg="http://www.w3.org/2000/svg"
   xmlns:rdf="http://www.w3.org/1999/02/22-rdf-syntax-ns#"
   xmlns:cc="http://creativecommons.org/ns#"
   xmlns:dc="http://purl.org/dc/elements/1.1/"><metadata
     id="metadata8"><rdf:RDF><cc:Work
         rdf:about=""><dc:format>image/svg+xml</dc:format><dc:type
           rdf:resource="http://purl.org/dc/dcmitype/StillImage" /></cc:Work></rdf:RDF></metadata><defs
     id="defs6"><clipPath
       clipPathUnits="userSpaceOnUse"
       id="clipPath18"><path
         d="M 322.659,304.364 H 159.27 v 18.343 h 163.389 z"
         id="path16"
         inkscape:connector-curvature="0" /></clipPath><linearGradient
       x1="0"
       y1="0"
       x2="1"
       y2="0"
       gradientUnits="userSpaceOnUse"
       gradientTransform="matrix(-1.9834863,-216.20001,-216.20001,1.9834863,241.03333,321.01636)"
       spreadMethod="pad"
       id="linearGradient28"><stop
         style="stop-opacity:1;stop-color:#009cb6"
         offset="0"
         id="stop24" /><stop
         style="stop-opacity:1;stop-color:#173b5e"
         offset="1"
         id="stop26" /></linearGradient><clipPath
       clipPathUnits="userSpaceOnUse"
       id="clipPath38"><path
         d="M 322.659,270.699 H 159.27 v 18.342 h 163.389 z"
         id="path36"
         inkscape:connector-curvature="0" /></clipPath><linearGradient
       x1="0"
       y1="0"
       x2="1"
       y2="0"
       gradientUnits="userSpaceOnUse"
       gradientTransform="matrix(-1.9834863,-216.20001,-216.20001,1.9834863,241.34215,321.01352)"
       spreadMethod="pad"
       id="linearGradient48"><stop
         style="stop-opacity:1;stop-color:#009cb6"
         offset="0"
         id="stop44" /><stop
         style="stop-opacity:1;stop-color:#173b5e"
         offset="1"
         id="stop46" /></linearGradient><clipPath
       clipPathUnits="userSpaceOnUse"
       id="clipPath58"><path
         d="M 322.659,237.034 H 159.27 v 18.343 h 163.389 z"
         id="path56"
         inkscape:connector-curvature="0" /></clipPath><linearGradient
       x1="0"
       y1="0"
       x2="1"
       y2="0"
       gradientUnits="userSpaceOnUse"
       gradientTransform="matrix(-1.9834863,-216.20001,-216.20001,1.9834863,241.65099,321.01068)"
       spreadMethod="pad"
       id="linearGradient68"><stop
         style="stop-opacity:1;stop-color:#009cb6"
         offset="0"
         id="stop64" /><stop
         style="stop-opacity:1;stop-color:#173b5e"
         offset="1"
         id="stop66" /></linearGradient><clipPath
       clipPathUnits="userSpaceOnUse"
       id="clipPath78"><path
         d="M 322.659,203.368 H 159.27 v 18.343 h 163.389 z"
         id="path76"
         inkscape:connector-curvature="0" /></clipPath><linearGradient
       x1="0"
       y1="0"
       x2="1"
       y2="0"
       gradientUnits="userSpaceOnUse"
       gradientTransform="matrix(-1.9834863,-216.20001,-216.20001,1.9834863,241.95981,321.00784)"
       spreadMethod="pad"
       id="linearGradient88"><stop
         style="stop-opacity:1;stop-color:#009cb6"
         offset="0"
         id="stop84" /><stop
         style="stop-opacity:1;stop-color:#173b5e"
         offset="1"
         id="stop86" /></linearGradient><clipPath
       clipPathUnits="userSpaceOnUse"
       id="clipPath98"><path
         d="M 322.659,169.703 H 159.27 v 18.343 h 163.389 z"
         id="path96"
         inkscape:connector-curvature="0" /></clipPath><linearGradient
       x1="0"
       y1="0"
       x2="1"
       y2="0"
       gradientUnits="userSpaceOnUse"
       gradientTransform="matrix(-1.9834863,-216.20001,-216.20001,1.9834863,242.26865,321.00504)"
       spreadMethod="pad"
       id="linearGradient108"><stop
         style="stop-opacity:1;stop-color:#009cb6"
         offset="0"
         id="stop104" /><stop
         style="stop-opacity:1;stop-color:#173b5e"
         offset="1"
         id="stop106" /></linearGradient><clipPath
       clipPathUnits="userSpaceOnUse"
       id="clipPath118"><path
         d="M 322.659,136.038 H 159.27 v 18.342 h 163.389 z"
         id="path116"
         inkscape:connector-curvature="0" /></clipPath><linearGradient
       x1="0"
       y1="0"
       x2="1"
       y2="0"
       gradientUnits="userSpaceOnUse"
       gradientTransform="matrix(-1.9834863,-216.20001,-216.20001,1.9834863,242.57747,321.0022)"
       spreadMethod="pad"
       id="linearGradient128"><stop
         style="stop-opacity:1;stop-color:#009cb6"
         offset="0"
         id="stop124" /><stop
         style="stop-opacity:1;stop-color:#173b5e"
         offset="1"
         id="stop126" /></linearGradient><clipPath
       clipPathUnits="userSpaceOnUse"
       id="clipPath138"><path
         d="M 362.877,99.316 H 119.053 v 129.778 h 7.382 V 106.699 h 229.059 v 122.395 h 7.383 z"
         id="path136"
         inkscape:connector-curvature="0" /></clipPath><linearGradient
       x1="0"
       y1="0"
       x2="1"
       y2="0"
       gradientUnits="userSpaceOnUse"
       gradientTransform="matrix(-1.9834863,-216.20001,-216.20001,1.9834863,242.40337,321.00378)"
       spreadMethod="pad"
       id="linearGradient148"><stop
         style="stop-opacity:1;stop-color:#009cb6"
         offset="0"
         id="stop144" /><stop
         style="stop-opacity:1;stop-color:#173b5e"
         offset="1"
         id="stop146" /></linearGradient><clipPath
       clipPathUnits="userSpaceOnUse"
       id="clipPath158"><path
         d="M 0,341.481 H 481.93 V 0 H 0 Z"
         id="path156"
         inkscape:connector-curvature="0" /></clipPath><style
       id="style903">.c{fill:url(#b);}.d{fill:#fff;}.e{fill:#1c4062;}</style><linearGradient
       id="b"
       x1="60.720001"
       y1="122.62"
       x2="60.720001"
       y2="0"
       gradientUnits="userSpaceOnUse"><stop
         offset="0"
         stop-color="#1c4062"
         id="stop905" /><stop
         offset=".24"
         stop-color="#125e7e"
         id="stop907" /><stop
         offset=".56"
         stop-color="#08819e"
         id="stop909" /><stop
         offset=".83"
         stop-color="#0297b1"
         id="stop911" /><stop
         offset="1"
         stop-color="#009fb9"
         id="stop913" /></linearGradient><linearGradient
       id="b-3"
       x1="252"
       y1="208.66"
       x2="252"
       y2="-0.83999997"
       gradientUnits="userSpaceOnUse"><stop
         offset="0"
         stop-color="#1c4062"
         id="stop4" /><stop
         offset=".24"
         stop-color="#125e7e"
         id="stop6" /><stop
         offset=".56"
         stop-color="#08819e"
         id="stop8" /><stop
         offset=".83"
         stop-color="#0297b1"
         id="stop10" /><stop
         offset="1"
         stop-color="#009fb9"
         id="stop12" /></linearGradient></defs><sodipodi:namedview
     pagecolor="#ffffff"
     bordercolor="#666666"
     borderopacity="1"
     objecttolerance="10"
     gridtolerance="10"
     guidetolerance="10"
     inkscape:pageopacity="0"
     inkscape:pageshadow="2"
     inkscape:window-width="2488"
     inkscape:window-height="1371"
     id="namedview4"
     showgrid="false"
     inkscape:zoom="1.0366609"
     inkscape:cx="19.77503"
     inkscape:cy="418.16953"
     inkscape:window-x="2632"
     inkscape:window-y="32"
     inkscape:window-maximized="1"
     inkscape:current-layer="g10"
     inkscape:document-rotation="0"
     inkscape:pagecheckerboard="0"
     fit-margin-top="0"
     fit-margin-left="0"
     fit-margin-right="0"
     fit-margin-bottom="0" /><g
     id="g10"
     inkscape:groupmode="layer"
     inkscape:label="logo RdiffWeb v1"
     transform="matrix(1.3333333,0,0,-1.3333333,-283.1544,251.99999)"><g
       id="g269"
       transform="matrix(0.70171752,0,0,0.70171752,40.501724,-98.069889)"><path
         d="m 260.85743,86.638497 v -33.47625 h -15.93825 v 85.675503 h 26.12925 q 8.70975,0 14.931,-1.83675 6.2805,-1.7775 10.25025,-5.03625 4.029,-3.25875 5.925,-7.821 1.896,-4.503 1.896,-9.954 0,-4.32525 -1.3035,-8.1765 -1.24425,-3.85125 -3.6735,-6.991503 -2.37,-3.14025 -5.925,-5.51025 -3.49575,-2.37 -7.99875,-3.792 3.02175,-1.71825 5.214,-4.91775 l 21.4485,-31.6395 h -14.39775 q -4.08825,0 -5.925,3.1995 l -18.012,27.43275 q -1.00725,1.5405 -2.2515,2.19225 -1.185,0.65175 -3.555,0.65175 z m 0,11.43525 h 9.954 q 4.503,0 7.821,1.12575 3.37725,1.125753 5.51025,3.081003 2.19225,2.0145 3.25875,4.74 1.0665,2.7255 1.0665,5.98425 0,6.5175 -4.32525,10.01325 -4.266,3.49575 -13.09425,3.49575 h -10.191 z"
         style="font-style:normal;font-variant:normal;font-weight:bold;font-stretch:normal;font-size:118.5px;line-height:1.25;font-family:Lato;-inkscape-font-specification:'Lato Bold';fill:#1c4062;fill-opacity:1;stroke:none;stroke-width:0.75"
         id="path1446" /><path
         d="m 397.19164,95.999997 q 0,-9.42075 -3.14025,-17.301 -3.14025,-7.88025 -8.82825,-13.56825 -5.688,-5.688 -13.68675,-8.82825 -7.99875,-3.14025 -17.775,-3.14025 h -32.64675 v 85.675503 h 32.64675 q 9.77625,0 17.775,-3.1995 7.99875,-3.14025 13.68675,-8.82825 5.688,-5.62875 8.82825,-13.509 3.14025,-7.88025 3.14025,-17.301003 z m -16.353,0 q 0,7.050753 -1.896,12.620253 -1.83675,5.62875 -5.39175,9.48 -3.49575,3.9105 -8.532,5.98425 -4.977,2.07375 -11.2575,2.07375 H 337.11214 V 65.841747 h 16.64925 q 6.2805,0 11.2575,2.07375 5.03625,2.07375 8.532,5.925 3.555,3.9105 5.39175,9.48 1.896,5.62875 1.896,12.6795 z"
         style="font-style:normal;font-variant:normal;font-weight:bold;font-stretch:normal;font-size:118.5px;line-height:1.25;font-family:Lato;-inkscape-font-specification:'Lato Bold';fill:#1c4062;fill-opacity:1;stroke:none;stroke-width:0.75"
         id="path1448" /><path
         d="m 427.23138,53.162247 h -15.9975 v 85.675503 h 15.9975 z"
         style="font-style:normal;font-variant:normal;font-weight:bold;font-stretch:normal;font-size:118.5px;line-height:1.25;font-family:Lato;-inkscape-font-specification:'Lato Bold';fill:#1c4062;fill-opacity:1;stroke:none;stroke-width:0.75"
         id="path1450" /><path
         d="m 500.40504,138.83775 v -12.6795 h -38.0385 v -25.359 h 32.1135 V 88.060497 h -32.1135 v -34.89825 h -15.9975 v 85.675503 z"
         style="font-style:normal;font-variant:normal;font-weight:bold;font-stretch:normal;font-size:118.5px;line-height:1.25;font-family:Lato;-inkscape-font-specification:'Lato Bold';fill:#1c4062;fill-opacity:1;stroke:none;stroke-width:0.75"
         id="path1452" /><path
         d="m 567.47605,138.83775 v -12.6795 h -38.0385 v -25.359 h 32.1135 V 88.060497 h -32.1135 v -34.89825 h -15.9975 v 85.675503 z"
         style="font-style:normal;font-variant:normal;font-weight:bold;font-stretch:normal;font-size:118.5px;line-height:1.25;font-family:Lato;-inkscape-font-specification:'Lato Bold';fill:#1c4062;fill-opacity:1;stroke:none;stroke-width:0.75"
         id="path1454" /><path
         d="m 571.97904,138.83775 h 13.33125 q 2.07375,0 3.4365,-1.00725 1.422,-0.948 1.896,-2.607 l 14.5755,-51.251253 q 0.474,-1.896 0.88875,-4.1475 0.474,-2.19225 0.948,-4.68075 0.474,2.4885 1.00725,4.68075 0.5925,2.2515 1.24425,4.1475 l 16.827,51.251253 q 0.474,1.36275 1.83675,2.4885 1.422,1.12575 3.4365,1.12575 h 4.68075 q 2.07375,0 3.37725,-1.00725 1.3035,-1.00725 1.95525,-2.607 l 16.76775,-51.251253 q 1.24425,-3.6735 2.2515,-8.47275 0.77025,4.68075 1.71825,8.47275 l 14.5755,51.251253 q 0.3555,1.48125 1.7775,2.54775 1.48125,1.0665 3.49575,1.0665 h 12.50175 L 667.90479,53.162247 h -14.39775 l -18.723,58.539003 q -0.41475,1.12575 -0.77025,2.42925 -0.3555,1.3035 -0.711,2.7255 -0.29625,-1.422 -0.711,-2.7255 -0.3555,-1.3035 -0.711,-2.42925 L 612.98004,53.162247 h -14.457 z"
         style="font-style:normal;font-variant:normal;font-weight:bold;font-stretch:normal;font-size:118.5px;line-height:1.25;font-family:Lato;-inkscape-font-specification:'Lato Bold';fill:#1c4062;fill-opacity:1;stroke:none;stroke-width:0.75"
         id="path1456" /><path
         d="m 759.09037,138.83775 v -12.6795 h -38.0385 V 102.399 h 29.9805 V 90.134247 h -29.9805 v -24.23325 h 38.0385 v -12.73875 h -54.036 v 85.675503 z"
         style="font-style:normal;font-variant:normal;font-weight:bold;font-stretch:normal;font-size:118.5px;line-height:1.25;font-family:Lato;-inkscape-font-specification:'Lato Bold';fill:#1c4062;fill-opacity:1;stroke:none;stroke-width:0.75"
         id="path1458" /><path
         d="m 773.19176,53.162247 v 85.675503 h 29.5065 q 8.4135,0 14.39775,-1.59975 5.98425,-1.59975 9.77625,-4.56225 3.85125,-2.9625 5.62875,-7.16925 1.7775,-4.20675 1.7775,-9.48 0,-3.02175 -0.88875,-5.8065 -0.88875,-2.7255 -2.78475,-5.15475 -1.83675,-2.37 -4.74,-4.32525 -2.844,-1.955253 -6.81375,-3.318003 17.6565,-3.96975 17.6565,-19.0785 0,-5.451 -2.07375,-10.0725 -2.07375,-4.6215 -6.0435,-7.99875 -3.96975,-3.318 -9.77625,-5.214 -5.8065,-1.896 -13.272,-1.896 z m 15.93825,37.5645 v -25.122 h 16.116 q 4.44375,0 7.4655,1.0665 3.02175,1.0665 4.79925,2.844 1.83675,1.7775 2.607,4.1475 0.8295,2.37 0.8295,5.03625 0,2.78475 -0.88875,4.977 -0.88875,2.2515 -2.78475,3.792 -1.896,1.59975 -4.91775,2.42925 -2.9625,0.8295 -7.16925,0.8295 z m 0,11.020503 h 12.6795 q 8.1765,0 12.324,2.9625 4.20675,2.9625 4.20675,9.42075 0,6.69525 -3.792,9.53925 -3.792,2.844 -11.85,2.844 h -13.56825 z"
         style="font-style:normal;font-variant:normal;font-weight:bold;font-stretch:normal;font-size:118.5px;line-height:1.25;font-family:Lato;-inkscape-font-specification:'Lato Bold';fill:#1c4062;fill-opacity:1;stroke:none;stroke-width:0.75"
         id="path1460" /></g><g
       id="g1283"
       transform="matrix(0.81046876,0,0,0.81046876,342.19501,-34.062054)"><g
         transform="matrix(0.78745326,0,0,0.78745326,-93.748279,21.109292)"
         id="g12"><g
           clip-path="url(#clipPath18)"
           id="g14"><g
             id="g20"><g
               id="g22"><path
                 inkscape:connector-curvature="0"
                 id="path30"
                 style="fill:url(#linearGradient28);stroke:none"
                 d="M 322.659,304.364 H 159.27 v 18.343 h 163.389 z" /></g></g></g></g><g
         transform="matrix(0.78745326,0,0,0.78745326,-93.748279,21.109292)"
         id="g32"><g
           clip-path="url(#clipPath38)"
           id="g34"><g
             id="g40"><g
               id="g42"><path
                 inkscape:connector-curvature="0"
                 id="path50"
                 style="fill:url(#linearGradient48);stroke:none"
                 d="M 322.659,270.699 H 159.27 v 18.342 h 163.389 z" /></g></g></g></g><g
         transform="matrix(0.78745326,0,0,0.78745326,-93.748279,21.109292)"
         id="g52"><g
           clip-path="url(#clipPath58)"
           id="g54"><g
             id="g60"><g
               id="g62"><path
                 inkscape:connector-curvature="0"
                 id="path70"
                 style="fill:url(#linearGradient68);stroke:none"
                 d="M 322.659,237.034 H 159.27 v 18.343 h 163.389 z" /></g></g></g></g><g
         transform="matrix(0.78745326,0,0,0.78745326,-93.748279,21.109292)"
         id="g72"><g
           clip-path="url(#clipPath78)"
           id="g74"><g
             id="g80"><g
               id="g82"><path
                 inkscape:connector-curvature="0"
                 id="path90"
                 style="fill:url(#linearGradient88);stroke:none"
                 d="M 322.659,203.368 H 159.27 v 18.343 h 163.389 z" /></g></g></g></g><g
         transform="matrix(0.78745326,0,0,0.78745326,-93.748279,21.109292)"
         id="g92"><g
           clip-path="url(#clipPath98)"
           id="g94"><g
             id="g100"><g
               id="g102"><path
                 inkscape:connector-curvature="0"
                 id="path110"
                 style="fill:url(#linearGradient108);stroke:none"
                 d="M 322.659,169.703 H 159.27 v 18.343 h 163.389 z" /></g></g></g></g><g
         transform="matrix(0.78745326,0,0,0.78745326,-93.748279,21.109292)"
         id="g112"><g
           clip-path="url(#clipPath118)"
           id="g114"><g
             id="g120"><g
               id="g122"><path
                 inkscape:connector-curvature="0"
                 id="path130"
                 style="fill:url(#linearGradient128);stroke:none"
                 d="M 322.659,136.038 H 159.27 v 18.342 h 163.389 z" /></g></g></g></g><g
         transform="matrix(0.78745326,0,0,0.78745326,-93.748672,21.109292)"
         id="g132"><g
           clip-path="url(#clipPath138)"
           id="g134"><g
             id="g140"><g
               id="g142"><path
                 inkscape:connector-curvature="0"
                 id="path150"
                 style="fill:url(#linearGradient148);stroke:none"
                 d="M 362.877,99.316 H 119.053 v 129.778 h 7.382 V 106.699 h 229.059 v 122.395 h 7.383 z" /></g></g></g></g></g></g></svg>
